PathFileType	4	(X/Y/Z)	Patient5_TMGait_0pt45_1_right_04.trc.trc
DataRate	CameraRate	NumFrames	NumMarkers	Units	OrigDataRate	OrigDataStartFrame	OrigNumFrames
55.776892430279	55.776892430279	4	32	mm	55.776892430279	106	       141
Frame#	Time	R.ASIS			L.ASIS			Chest			R.Shoulder			Neck			L.Shoulder			L.Elbow			L.Wrist			R.Elbow			R.Wrist			L.Thigh.Superior			L.Thigh.Lateral			L.Thigh.Inferior			L.Patella			L.Shank.Superior			L.Shank.Lateral			L.Shank.Inferior			L.Heel			L.Midfoot.Lateral			L.Midfoot.Superior			L.Toe			R.Thigh.Superior			R.Thigh.Lateral			R.Thigh.Inferior			R.Patella			R.Shank.Superior			R.Shank.Lateral			R.Shank.Inferior			R.Heel			R.Midfoot.Lateral			R.Midfoot.Superior			R.Toe			
		X1	Y1	Z1	X2	Y2	Z2	X3	Y3	Z3	X4	Y4	Z4	X5	Y5	Z5	X6	Y6	Z6	X7	Y7	Z7	X8	Y8	Z8	X9	Y9	Z9	X10	Y10	Z10	X11	Y11	Z11	X12	Y12	Z12	X13	Y13	Z13	X14	Y14	Z14	X15	Y15	Z15	X16	Y16	Z16	X17	Y17	Z17	X18	Y18	Z18	X19	Y19	Z19	X20	Y20	Z20	X21	Y21	Z21	X22	Y22	Z22	X23	Y23	Z23	X24	Y24	Z24	X25	Y25	Z25	X26	Y26	Z26	X27	Y27	Z27	X28	Y28	Z28	X29	Y29	Z29	X30	Y30	Z30	X31	Y31	Z31	X32	Y32	Z32	

106	7.992500000000	907.741835349662	1021.251770411545	522.493400223820	930.233438926659	963.196613495320	274.681562720710	989.610490335036	1442.958573055442	409.912165898718	853.016346390046	1512.503277339197	545.542164870150	879.406024155043	1569.756661526552	362.523379861251	988.698607137334	1510.566279670084	208.804851877054	982.908744144389	1183.381679849067	77.941892321383	1135.145208767513	943.215490225862	114.213419431136	725.655641924932	1195.287020030404	656.590547012163	939.882288276888	999.636107789873	651.278214395213	927.427550481039	737.478401442327	285.718909337481	844.598005535414	674.572409840215	246.590121539617	904.183653092601	610.498594521820	313.563232875455	886.782203690590	497.603142523123	323.007665102188	832.534013086015	401.742661495496	348.459389950052	760.534088296193	334.252890761528	273.983409924413	792.171166025202	281.594341337966	363.621616979144	644.383394761151	52.756543713198	376.573603054341	732.325181964560	27.808936267313	316.611597672729	830.607926132977	88.965008770116	358.883868992965	937.027776078256	44.190020469527	364.494470573900	986.700958919001	826.127664969672	568.898838174202	933.667923929863	738.867405967538	633.812328904124	1033.137855328771	707.853332845109	573.043456803922	1069.239461559495	617.355354280358	623.775146998104	1037.669974213744	500.845876612415	594.561258122722	959.789601607926	434.430032345270	672.161689231935	1026.361425722317	361.305687340344	602.790039214675	918.954963437337	133.132962031646	577.244138415175	991.720104240442	99.331368101176	655.385442852929	1095.919522539601	169.980195318420	650.402190423035	1200.247483393836	129.850115942398	656.505921639443	
107	8.010428571429	908.283770584102	1020.706167519290	522.114813648140	927.735540719413	963.255753770362	274.013708676149	986.720243638283	1442.731362670301	409.654481543945	850.926338179887	1511.947012566686	546.612322530426	875.896167486159	1569.294548393536	363.494674479018	983.837203128601	1510.262673314598	208.565481634636	977.302484577135	1182.660548255820	78.683270202647	1128.815365565983	941.956301870829	115.335562401278	722.630214586276	1195.298962990038	658.067803697786	936.647568429750	999.450176283935	653.699002519876	924.574468049176	737.172046880099	285.185120386985	840.635386234514	674.404947105027	246.803978596931	900.306213415571	609.985135859089	312.804581821916	881.845717000049	497.095066154872	322.209936715372	827.016875795799	401.590568001360	348.131027584765	753.802776777241	334.854515157904	274.102216648790	785.881593267975	281.743443324238	363.453191457177	636.454577243355	53.252357232137	376.694392640025	724.300470307108	27.937011518308	316.819635149077	822.739426893588	89.143845556240	358.681984359004	928.961494913303	44.058413857122	364.478335912321	992.193608378760	826.804219479229	567.350378887593	940.353037376006	739.142508164114	632.967714196297	1038.779415461315	709.181914654736	569.991441625468	1076.935916370582	618.978637368894	620.011918460002	1044.481157930135	501.710920918969	591.416914462777	968.533067536855	435.382536401090	670.962942438452	1032.841932848268	362.177034152924	599.539642416091	923.795464371934	134.311723201618	576.372860265018	998.673915467329	100.300345124358	652.416168337496	1102.831678460490	170.968501053677	644.749263104096	1207.278586760085	130.734178601778	648.000825920051	
108	8.028357142857	909.193266327622	1019.955536042841	521.979147782381	925.345068876182	963.301964650334	273.496896824147	984.049715845162	1442.601876769107	409.493715768492	849.257960642676	1511.361608640181	547.973913402555	872.511347294433	1568.855831702309	364.757194661679	978.791055359846	1510.098655506285	208.421736630621	971.126911181175	1182.138415894181	79.346535292971	1122.102796604383	940.996342396294	116.193715847590	720.201266197035	1195.227595647790	659.935145949351	933.834106732314	998.979411758737	656.192597323817	921.792579320452	736.949282259407	284.580348871573	836.853044332584	674.342433277847	246.952872615405	896.635624331166	609.545839520849	311.966962887974	877.108177500239	496.630991997898	321.323152302569	821.692502106536	401.460439446126	347.735085986681	747.166055826499	335.559172865764	274.203125364239	779.741029442966	281.941609079940	363.228853437471	628.550137465859	53.877629747164	376.819165092363	716.291378181906	28.112009792570	317.022542564819	814.903314174875	89.291191878229	358.480823098023	920.896968258877	43.982055271816	364.422323646673	997.098458886585	826.930596273286	566.224321164030	945.960516853190	738.871060697220	632.084505072313	1043.435829945493	709.818129780718	567.252968975275	1083.223693757017	619.747802549803	616.429797951318	1050.086314141662	501.920705918066	588.218930015422	975.830969708401	435.562688632256	669.296074296478	1038.194006408990	362.380561582601	596.142852364871	927.919257647358	134.725138026321	574.814297437470	1004.572009844561	100.552382951351	649.011756146013	1108.589619816338	171.295927554485	639.123386851760	1213.132577328778	131.039933605591	639.902760289186	
109	8.046285714286	910.332947712467	1018.997827604482	522.021056473481	923.076100243070	963.317440914521	273.187667614453	981.614628956090	1442.555961925719	409.458132291876	848.010622394650	1510.753411300339	549.606218640018	869.282157332814	1568.431739446446	366.286811303708	973.635032611036	1510.041623970707	208.400635132338	964.393789174316	1181.796751090928	79.934774856524	1115.017267212282	940.313127777001	116.707560510291	718.482437947995	1195.072784196132	662.254848975169	931.569556343598	998.243009150124	658.674647942175	919.049064374551	736.780096846741	283.990668485828	833.259802955011	674.383962558136	247.062330009941	893.141640201241	609.185756692668	311.164367742531	872.519742196121	496.222499359727	320.431581636929	816.523026978697	401.351386229678	347.320866537182	740.636843664873	336.345707724139	274.309584700631	773.706917437546	282.181968081781	362.985415561151	620.669056041051	54.646117559572	376.950773567294	708.293835072748	28.360041289738	317.213415489350	807.095816509257	89.410282222010	358.287351524969	912.831995522912	43.960170744752	364.326752247352	1001.189934492729	826.477715209484	565.407375874312	950.440931740751	737.984927347895	631.149752925944	1047.101659663435	709.717010128632	564.821373218629	1088.079314016323	619.618949279071	613.048036367586	1054.516251122107	501.452028965002	584.981187329499	981.706432878830	434.890217290961	667.154361068400	1042.536987772112	361.888551681475	592.595989365860	931.583646686306	134.287755623141	572.472135408941	1009.642437188798	100.066620947573	645.185106474260	1113.403937382960	170.981088950131	633.586974981578	1218.047841223135	130.839078003542	632.380613049841	
